<svg width="50" height="38" viewBox="0 0 50 38" fill="none" xmlns="http://www.w3.org/2000/svg">
<path d="M0 6.25C0.0651042 4.49219 0.683594 3.02734 1.85547 1.85547C3.02734 0.683594 4.49219 0.0651054 6.25 0H43.75C45.5078 0.0651054 46.9727 0.683594 48.1445 1.85547C49.3164 3.02734 49.9349 4.49219 50 6.25V31.25C49.9349 33.0078 49.3164 34.4727 48.1445 35.6445C46.9727 36.8164 45.5078 37.4349 43.75 37.5H6.25C4.49219 37.4349 3.02734 36.8164 1.85547 35.6445C0.683594 34.4727 0.0651042 33.0078 0 31.25V6.25ZM3.125 6.25V10.1562L22.2656 24.1211C24.0885 25.3581 25.9115 25.3581 27.7344 24.1211L46.875 10.1562V6.25C46.875 5.33854 46.582 4.58984 45.9961 4.00391C45.4102 3.41797 44.6615 3.125 43.75 3.125H6.15234C5.30599 3.125 4.58984 3.41797 4.00391 4.00391C3.41797 4.58984 3.09245 5.33854 3.02734 6.25H3.125ZM3.125 14.0625V31.25C3.125 32.1615 3.41797 32.9102 4.00391 33.4961C4.58984 34.082 5.33854 34.375 6.25 34.375H43.75C44.6615 34.375 45.4102 34.082 45.9961 33.4961C46.582 32.9102 46.875 32.1615 46.875 31.25V14.0625L29.5898 26.6602C28.2227 27.7018 26.6927 28.2227 25 28.2227C23.3073 28.2227 21.7773 27.7018 20.4102 26.6602L3.125 14.0625Z" fill="#FF494A"/>
</svg>
