<svg width="34" height="34" viewBox="0 0 34 34" fill="none" xmlns="http://www.w3.org/2000/svg">
<path d="M18.5937 6.50784L23.5742 1.52737C24.4153 0.686222 25.4114 0.265652 26.5625 0.265652C27.7135 0.265652 28.7096 0.686222 29.5508 1.52737L32.4726 4.44924C33.3138 5.29039 33.7343 6.28648 33.7343 7.43752C33.7343 8.58857 33.3138 9.58466 32.4726 10.4258L27.4922 15.4063L25.0351 24.5039C24.4596 26.4076 23.2643 27.6693 21.4492 28.2891L3.12107 33.7344C2.27992 33.9558 1.52732 33.7565 0.863256 33.1367C0.243464 32.4727 0.0442451 31.7201 0.265599 30.8789L5.71091 12.5508C6.3307 10.6914 7.57029 9.49612 9.42966 8.96487L18.5937 6.50784ZM20.6523 7.43752L26.5625 13.3477L31.0117 8.96487C31.4101 8.52216 31.6094 8.01305 31.6094 7.43752C31.6094 6.86201 31.4101 6.35289 31.0117 5.91018L28.0898 2.98831C27.6471 2.58987 27.138 2.39065 26.5625 2.39065C25.987 2.39065 25.4778 2.58987 25.0351 2.98831L20.6523 7.43752ZM18.7929 8.63284L10.0273 11.0235C8.87628 11.3776 8.12367 12.1081 7.76951 13.2149L2.85544 29.6836L10.1601 22.3789C9.76169 21.6706 9.56248 20.9401 9.56248 20.1875C9.60675 18.9922 10.0273 17.9961 10.8242 17.1992C11.6211 16.4024 12.6172 15.9818 13.8125 15.9375C15.0078 15.9818 16.0039 16.4024 16.8008 17.1992C17.5976 17.9961 18.0182 18.9922 18.0625 20.1875C18.0182 21.3828 17.5976 22.3789 16.8008 23.1758C16.0039 23.9727 15.0078 24.3933 13.8125 24.4375C13.0156 24.4375 12.3073 24.2383 11.6875 23.8399L4.31638 31.1446L20.7851 26.2305C21.8919 25.8763 22.6224 25.1459 22.9765 24.0391L25.3672 15.2071L18.7929 8.63284ZM13.8125 18.0625C13.1927 18.0625 12.6836 18.2617 12.2851 18.6602C11.8867 19.0586 11.6875 19.5677 11.6875 20.1875C11.6875 20.8073 11.8867 21.3164 12.2851 21.7149C12.6836 22.1133 13.1927 22.3125 13.8125 22.3125C14.4323 22.3125 14.9414 22.1133 15.3398 21.7149C15.7383 21.3164 15.9375 20.8073 15.9375 20.1875C15.9375 19.5677 15.7383 19.0586 15.3398 18.6602C14.9414 18.2617 14.4323 18.0625 13.8125 18.0625Z" fill="#2A2D31"/>
</svg>
