<svg width="63" height="44" viewBox="0 0 63 44" fill="none" xmlns="http://www.w3.org/2000/svg">
<path d="M53.125 28.125H54.6875C55.9896 28.1901 57.0964 28.6458 58.0078 29.4922C58.8542 30.4036 59.3099 31.5104 59.375 32.8125V39.0625C59.3099 40.3646 58.8542 41.4714 58.0078 42.3828C57.0964 43.2292 55.9896 43.6849 54.6875 43.75H48.4375C47.1354 43.6849 46.0286 43.2292 45.1172 42.3828C44.2708 41.4714 43.8151 40.3646 43.75 39.0625V32.8125C43.8151 31.5104 44.2708 30.4036 45.1172 29.4922C46.0286 28.6458 47.1354 28.1901 48.4375 28.125H50C49.9349 24.2839 48.9258 20.8659 46.9727 17.8711C44.9544 14.8763 42.2852 12.5977 38.9648 11.0352C38.9648 12.3372 38.5091 13.4115 37.5977 14.2578C36.7513 15.1693 35.6771 15.625 34.375 15.625H28.125C26.7578 15.625 25.651 15.1693 24.8047 14.2578C23.9583 13.4115 23.5026 12.3372 23.4375 11.0352C20.1823 12.5977 17.5456 14.8763 15.5273 17.8711C13.5742 20.8659 12.5651 24.2839 12.5 28.125H14.0625C15.3646 28.1901 16.4714 28.6458 17.3828 29.4922C18.2292 30.4036 18.6849 31.5104 18.75 32.8125V39.0625C18.6849 40.3646 18.2292 41.4714 17.3828 42.3828C16.4714 43.2292 15.3646 43.6849 14.0625 43.75H7.8125C6.51042 43.6849 5.40365 43.2292 4.49219 42.3828C3.64583 41.4714 3.1901 40.3646 3.125 39.0625V32.8125C3.1901 31.5104 3.64583 30.4036 4.49219 29.4922C5.40365 28.6458 6.51042 28.1901 7.8125 28.125H9.375C9.4401 24.0885 10.4167 20.4427 12.3047 17.1875C14.1927 13.9323 16.7643 11.3281 20.0195 9.375H12.207C11.8815 10.7422 11.1654 11.849 10.0586 12.6953C9.01693 13.6068 7.7474 14.0625 6.25 14.0625C4.49219 13.9974 3.02734 13.3789 1.85547 12.207C0.683594 11.0352 0.0651042 9.57031 0 7.8125C0.0651042 6.05469 0.683594 4.58984 1.85547 3.41797C3.02734 2.24609 4.49219 1.62761 6.25 1.5625C7.7474 1.5625 9.01693 2.01823 10.0586 2.92969C11.1654 3.77604 11.8815 4.88281 12.207 6.25H23.4375V4.6875C23.5026 3.38542 23.9583 2.27864 24.8047 1.36719C25.7161 0.520832 26.8229 0.0651054 28.125 0H34.375C35.6771 0.0651054 36.7839 0.520832 37.6953 1.36719C38.5417 2.27864 38.9974 3.38542 39.0625 4.6875V6.25H50.1953C50.5859 4.88281 51.3021 3.77604 52.3438 2.92969C53.4505 2.01823 54.7526 1.5625 56.25 1.5625C58.0078 1.62761 59.4727 2.24609 60.6445 3.41797C61.8164 4.58984 62.4349 6.05469 62.5 7.8125C62.4349 9.57031 61.8164 11.0352 60.6445 12.207C59.4727 13.3789 58.0078 13.9974 56.25 14.0625C54.7526 14.0625 53.4505 13.6068 52.3438 12.6953C51.3021 11.849 50.5859 10.7422 50.1953 9.375H42.4805C45.7357 11.3281 48.3073 13.9323 50.1953 17.1875C52.0833 20.4427 53.0599 24.0885 53.125 28.125ZM34.375 3.125H28.125C27.1484 3.19011 26.6276 3.71094 26.5625 4.6875V10.9375C26.6276 11.9141 27.1484 12.4349 28.125 12.5H34.375C35.3516 12.4349 35.8724 11.9141 35.9375 10.9375V4.6875C35.8724 3.71094 35.3516 3.19011 34.375 3.125ZM48.4375 31.25C47.4609 31.3151 46.9401 31.8359 46.875 32.8125V39.0625C46.9401 40.0391 47.4609 40.5599 48.4375 40.625H54.6875C55.6641 40.5599 56.1849 40.0391 56.25 39.0625V32.8125C56.1849 31.8359 55.6641 31.3151 54.6875 31.25H48.4375ZM7.8125 31.25C6.83594 31.3151 6.3151 31.8359 6.25 32.8125V39.0625C6.3151 40.0391 6.83594 40.5599 7.8125 40.625H14.0625C15.0391 40.5599 15.5599 40.0391 15.625 39.0625V32.8125C15.5599 31.8359 15.0391 31.3151 14.0625 31.25H7.8125ZM6.25 4.6875C5.33854 4.6875 4.58984 4.98047 4.00391 5.56641C3.41797 6.15234 3.125 6.90104 3.125 7.8125C3.125 8.72396 3.41797 9.47266 4.00391 10.0586C4.58984 10.6445 5.33854 10.9375 6.25 10.9375C7.16146 10.9375 7.91016 10.6445 8.49609 10.0586C9.08203 9.47266 9.375 8.72396 9.375 7.8125C9.375 6.90104 9.08203 6.15234 8.49609 5.56641C7.91016 4.98047 7.16146 4.6875 6.25 4.6875ZM56.25 4.6875C55.3385 4.6875 54.5898 4.98047 54.0039 5.56641C53.418 6.15234 53.125 6.90104 53.125 7.8125C53.125 8.72396 53.418 9.47266 54.0039 10.0586C54.5898 10.6445 55.3385 10.9375 56.25 10.9375C57.1615 10.9375 57.9102 10.6445 58.4961 10.0586C59.082 9.47266 59.375 8.72396 59.375 7.8125C59.375 6.90104 59.082 6.15234 58.4961 5.56641C57.9102 4.98047 57.1615 4.6875 56.25 4.6875Z" fill="#FF494A"/>
</svg>
