<svg width="30" height="34" viewBox="0 0 30 34" fill="none" xmlns="http://www.w3.org/2000/svg">
<path d="M7.4375 0C8.10156 0.0442696 8.45573 0.398438 8.5 1.0625V4.25H21.25V1.0625C21.2943 0.398438 21.6484 0.0442696 22.3125 0C22.9766 0.0442696 23.3307 0.398438 23.375 1.0625V4.25H25.5C26.6953 4.29427 27.6914 4.71484 28.4883 5.51172C29.2852 6.30859 29.7057 7.30469 29.75 8.5V29.75C29.7057 30.9453 29.2852 31.9414 28.4883 32.7383C27.6914 33.5352 26.6953 33.9557 25.5 34H4.25C3.05469 33.9557 2.05859 33.5352 1.26172 32.7383C0.464844 31.9414 0.0442708 30.9453 0 29.75V8.5C0.0442708 7.30469 0.464844 6.30859 1.26172 5.51172C2.05859 4.71484 3.05469 4.29427 4.25 4.25H6.375V1.0625C6.41927 0.398438 6.77344 0.0442696 7.4375 0ZM27.625 12.75H2.125V29.75C2.125 30.3698 2.32422 30.8789 2.72266 31.2773C3.12109 31.6758 3.63021 31.875 4.25 31.875H25.5C26.1198 31.875 26.6289 31.6758 27.0273 31.2773C27.4258 30.8789 27.625 30.3698 27.625 29.75V12.75ZM25.5 6.375H4.25C3.63021 6.375 3.12109 6.57422 2.72266 6.97266C2.32422 7.37109 2.125 7.88021 2.125 8.5V10.625H27.625V8.5C27.625 7.88021 27.4258 7.37109 27.0273 6.97266C26.6289 6.57422 26.1198 6.375 25.5 6.375Z" fill="#2A2D31"/>
</svg>
