<svg width="34" height="34" viewBox="0 0 34 34" fill="none" xmlns="http://www.w3.org/2000/svg">
<path d="M32.9375 8.89844C33.6016 9.29688 33.9557 9.89453 34 10.6914C34 11.2669 33.8008 11.7539 33.4023 12.1523C33.0039 12.5508 32.5169 12.75 31.9414 12.75H2.05859C1.48307 12.75 0.996094 12.5508 0.597656 12.1523C0.199219 11.7539 0 11.2669 0 10.6914C0.0442708 9.89453 0.398438 9.29688 1.0625 8.89844L16.4688 0.132812C16.7786 -0.0442696 17.1328 -0.0442696 17.5312 0.132812L32.9375 8.89844ZM31.7422 10.625L17 2.25781L2.25781 10.625H13.6133C13.3919 10.138 13.2812 9.60677 13.2812 9.03125C13.3255 7.96875 13.6797 7.08333 14.3438 6.375C15.0521 5.71094 15.9375 5.35677 17 5.3125C18.0625 5.35677 18.9479 5.71094 19.6562 6.375C20.3203 7.08333 20.6745 7.96875 20.7188 9.03125C20.7188 9.60677 20.6081 10.138 20.3867 10.625H31.7422ZM17 10.625C17.974 10.5365 18.5052 10.0052 18.5938 9.03125C18.5052 8.05729 17.974 7.52604 17 7.4375C16.026 7.52604 15.4948 8.05729 15.4062 9.03125C15.4948 10.0052 16.026 10.5365 17 10.625ZM4.25 14.875H6.375V23.375H11.6875V14.875H13.8125V23.375H20.1875V14.875H22.3125V23.375H27.625V14.875H29.75V23.375C30.4141 23.4193 30.7682 23.7734 30.8125 24.4375C30.7682 25.1016 30.4141 25.4557 29.75 25.5H4.25C3.58594 25.4557 3.23177 25.1016 3.1875 24.4375C3.23177 23.7734 3.58594 23.4193 4.25 23.375V14.875ZM31.3438 27.625C32.0078 27.6693 32.362 28.0234 32.4062 28.6875C32.362 29.3516 32.0078 29.7057 31.3438 29.75H2.65625C1.99219 29.7057 1.63802 29.3516 1.59375 28.6875C1.63802 28.0234 1.99219 27.6693 2.65625 27.625H31.3438ZM32.9375 31.875C33.6016 31.9193 33.9557 32.2734 34 32.9375C33.9557 33.6016 33.6016 33.9557 32.9375 34H1.0625C0.398438 33.9557 0.0442708 33.6016 0 32.9375C0.0442708 32.2734 0.398438 31.9193 1.0625 31.875H32.9375Z" fill="#141414"/>
</svg>
