<svg width="50" height="50" viewBox="0 0 50 50" fill="none" xmlns="http://www.w3.org/2000/svg">
<path d="M36.416 1.5625C37.5228 0.520832 38.8249 0 40.3223 0C41.7546 0 43.0241 0.520832 44.1309 1.5625L48.3301 5.76172C49.3717 6.86849 49.8926 8.13802 49.8926 9.57031C49.8926 11.0677 49.3717 12.3698 48.3301 13.4766L17.7637 44.043C16.6569 45.1497 15.3548 45.931 13.8574 46.3867L2.04102 49.8047C1.38997 49.9349 0.869141 49.8047 0.478516 49.4141C0.0227865 49.0234 -0.107422 48.5352 0.0878906 47.9492L3.50586 36.1328C3.96159 34.5703 4.74284 33.2357 5.84961 32.1289L36.416 1.5625ZM41.9824 3.80859C40.8757 2.89714 39.7689 2.89714 38.6621 3.80859L33.291 9.08203L40.8105 16.5039L46.084 11.2305C46.9954 10.1237 46.9954 9.01693 46.084 7.91016L41.9824 3.80859ZM6.5332 37.0117L3.89648 45.9961L12.8809 43.3594C13.9225 43.0339 14.834 42.513 15.6152 41.7969L38.4668 18.8477L31.0449 11.3281L8.0957 34.2773C7.37956 35.0586 6.85872 35.9701 6.5332 37.0117ZM16.8848 2.53906L23.8184 9.47266L21.6699 11.7188L18.5449 8.59375L15.127 11.9141C14.4108 12.5651 13.6947 12.5651 12.9785 11.9141C12.3275 11.1979 12.3275 10.4818 12.9785 9.76562L16.2988 6.34766L14.7363 4.78516C14.0853 4.19922 13.3366 3.90625 12.4902 3.90625C11.6439 3.90625 10.8952 4.19922 10.2441 4.78516L4.87305 10.1562C4.28711 10.8073 3.99414 11.556 3.99414 12.4023C3.99414 13.2487 4.28711 13.9974 4.87305 14.6484L11.8066 21.582L9.56055 23.7305L2.62695 16.7969C1.45508 15.5599 0.869141 14.0951 0.869141 12.4023C0.869141 10.7096 1.45508 9.24479 2.62695 8.00781L8.0957 2.53906C9.33268 1.36719 10.7975 0.78125 12.4902 0.78125C14.1829 0.78125 15.6478 1.36719 16.8848 2.53906ZM33.0957 47.2656L26.1621 40.332L28.4082 38.0859L35.2441 45.0195C35.8952 45.6055 36.6439 45.8984 37.4902 45.8984C38.3366 45.8984 39.0853 45.6055 39.7363 45.0195L45.1074 39.6484C45.6934 38.9974 45.9863 38.2487 45.9863 37.4023C45.9863 36.556 45.6934 35.8073 45.1074 35.1562L43.5449 33.4961L40.127 36.9141C39.4108 37.5651 38.6947 37.5651 37.9785 36.9141C37.3275 36.1979 37.3275 35.4818 37.9785 34.7656L41.2988 31.3477L38.1738 28.3203L40.4199 26.0742L47.3535 33.0078C48.5254 34.2448 49.1113 35.7096 49.1113 37.4023C49.1113 39.0951 48.5254 40.5599 47.3535 41.7969L41.8848 47.2656C40.6478 48.4375 39.1829 49.0234 37.4902 49.0234C35.7975 49.0234 34.3327 48.4375 33.0957 47.2656Z" fill="#FF494A"/>
</svg>
