<svg width="35" height="50" viewBox="0 0 35 50" fill="none" xmlns="http://www.w3.org/2000/svg">
<path d="M23.4375 40.5273H10.9375C9.96094 40.5924 9.4401 41.1133 9.375 42.0898V44.3359C9.375 44.987 9.53776 45.5729 9.86328 46.0938L11.6211 48.6328C12.2721 49.4792 13.1185 49.9349 14.1602 50H20.2148C21.2565 49.9349 22.1029 49.4792 22.7539 48.6328L24.5117 46.0938C24.7721 45.5729 24.9349 44.987 25 44.3359V42.1875C24.8698 41.2109 24.349 40.6576 23.4375 40.5273ZM21.875 44.3359L20.3125 46.7773C20.3125 46.7773 20.2799 46.7773 20.2148 46.7773C20.1497 46.8424 20.1497 46.875 20.2148 46.875H14.3555C14.2904 46.875 14.2253 46.875 14.1602 46.875L12.5 44.3359V43.75H21.875V44.2383C21.875 44.3034 21.875 44.3359 21.875 44.3359ZM29.2969 4.98047C25.8464 1.66016 21.7773 0 17.0898 0C12.2721 0.130207 8.23568 1.82292 4.98047 5.07812C1.79036 8.33333 0.130208 12.4023 0 17.2852C0.0651042 21.6471 1.4974 25.4557 4.29688 28.7109C4.94792 29.4922 5.69661 30.599 6.54297 32.0312C7.45443 33.3984 8.10547 34.7656 8.49609 36.1328C8.69141 37.0443 9.27734 37.5 10.2539 37.5C11.1654 37.3047 11.6211 36.7188 11.6211 35.7422L11.5234 35.4492C11.0026 33.6914 10.2539 31.9987 9.27734 30.3711C8.30078 28.7435 7.42188 27.5065 6.64062 26.6602C4.36198 23.9909 3.1901 20.8659 3.125 17.2852C3.1901 13.2487 4.55729 9.89583 7.22656 7.22656C9.83073 4.62239 13.151 3.25521 17.1875 3.125C21.0286 3.19011 24.3164 4.55729 27.0508 7.22656C29.7852 10.026 31.1849 13.3789 31.25 17.2852C31.1849 20.8659 30.013 23.9909 27.7344 26.6602C26.9531 27.5065 26.0742 28.7435 25.0977 30.3711C24.1211 31.9987 23.3724 33.6914 22.8516 35.4492L22.7539 35.7422C22.6888 36.7188 23.1445 37.3372 24.1211 37.5977C24.1862 37.5977 24.2513 37.5977 24.3164 37.5977C25.1628 37.5326 25.651 37.1094 25.7812 36.3281C26.237 34.8958 26.888 33.4635 27.7344 32.0312C28.6458 30.599 29.4271 29.4922 30.0781 28.7109C32.8776 25.4557 34.3099 21.6471 34.375 17.2852C34.3099 12.5326 32.6172 8.43099 29.2969 4.98047ZM18.75 7.8125C18.6849 6.83594 18.1641 6.31511 17.1875 6.25C14.0625 6.31511 11.4909 7.38932 9.47266 9.47266C7.38932 11.4909 6.3151 14.0299 6.25 17.0898C6.3151 18.1315 6.83594 18.6849 7.8125 18.75C8.78906 18.6849 9.3099 18.1641 9.375 17.1875C9.4401 14.974 10.1888 13.151 11.6211 11.7188C13.1185 10.2865 14.974 9.53776 17.1875 9.47266C18.1641 9.27734 18.6849 8.72396 18.75 7.8125Z" fill="#FF494A"/>
</svg>
